REM DIRINDEX 1\2\4,1\2\5,1\3\6,1\3\7,1\3\8
REM DIRNAME folder01,folder02,folder03,folder04,folder05,folder06,folder07,folder08
TITLE ""
FILE "LEVEL6-007-midashigo.mp3" MP3
  TRACK 01 AUDIO
    TITLE "0:"
    INDEX 01 00:00:00
  TRACK 02 AUDIO
    TITLE "6:cjc092_4412"
    INDEX 01 00:00:03
  TRACK 03 AUDIO
    TITLE "0:"
    INDEX 01 00:02:42
  TRACK 04 AUDIO
    TITLE "7:cjc092_4413"
    INDEX 01 00:03:08
  TRACK 05 AUDIO
    TITLE "8:cjc092_4414"
    INDEX 01 00:04:35
  TRACK 06 AUDIO
    TITLE "0:"
    INDEX 01 00:07:21
  TRACK 07 AUDIO
    TITLE "7:cjc092_4415"
    INDEX 01 00:07:56
  TRACK 08 AUDIO
    TITLE "8:cjc092_4416"
    INDEX 01 00:09:00
  TRACK 09 AUDIO
    TITLE "0:"
    INDEX 01 00:11:33
  TRACK 10 AUDIO
    TITLE "7:cjc092_4417"
    INDEX 01 00:11:68
  TRACK 11 AUDIO
    TITLE "8:cjc092_4418"
    INDEX 01 00:13:18
  TRACK 12 AUDIO
    TITLE "0:"
    INDEX 01 00:14:23
  TRACK 13 AUDIO
    TITLE "7:cjc092_4419"
    INDEX 01 00:14:51
  TRACK 14 AUDIO
    TITLE "8:cjc092_4420"
    INDEX 01 00:16:02
  TRACK 15 AUDIO
    TITLE "0:"
    INDEX 01 00:18:03
  TRACK 16 AUDIO
    TITLE "7:cjc092_4421"
    INDEX 01 00:18:39
  TRACK 17 AUDIO
    TITLE "8:cjc092_4422"
    INDEX 01 00:19:65
  TRACK 18 AUDIO
    TITLE "0:"
    INDEX 01 00:22:44
  TRACK 19 AUDIO
    TITLE "7:cjc092_4423"
    INDEX 01 00:23:06
  TRACK 20 AUDIO
    TITLE "8:cjc092_4424"
    INDEX 01 00:24:45
  TRACK 21 AUDIO
    TITLE "0:"
    INDEX 01 00:27:53
  TRACK 22 AUDIO
    TITLE "7:cjc092_4425"
    INDEX 01 00:28:15
  TRACK 23 AUDIO
    TITLE "8:cjc092_4426"
    INDEX 01 00:29:54
  TRACK 24 AUDIO
    TITLE "0:"
    INDEX 01 00:31:57
  TRACK 25 AUDIO
    TITLE "7:cjc092_4427"
    INDEX 01 00:32:19
  TRACK 26 AUDIO
    TITLE "8:cjc092_4428"
    INDEX 01 00:33:62
  TRACK 27 AUDIO
    TITLE "0:"
    INDEX 01 00:35:63
  TRACK 28 AUDIO
    TITLE "7:cjc092_4429"
    INDEX 01 00:36:21
  TRACK 29 AUDIO
    TITLE "8:cjc092_4430"
    INDEX 01 00:37:50
  TRACK 30 AUDIO
    TITLE "0:"
    INDEX 01 00:40:54
  TRACK 31 AUDIO
    TITLE "7:cjc092_4431"
    INDEX 01 00:41:14
  TRACK 32 AUDIO
    TITLE "8:cjc092_4432"
    INDEX 01 00:42:45
  TRACK 33 AUDIO
    TITLE "0:"
    INDEX 01 00:44:48
  TRACK 34 AUDIO
    TITLE "7:cjc092_4433"
    INDEX 01 00:45:08
  TRACK 35 AUDIO
    TITLE "8:cjc092_4434"
    INDEX 01 00:46:60
  TRACK 36 AUDIO
    TITLE "0:"
    INDEX 01 00:49:06
  TRACK 37 AUDIO
    TITLE "7:cjc092_4435"
    INDEX 01 00:49:41
  TRACK 38 AUDIO
    TITLE "8:cjc092_4436"
    INDEX 01 00:51:03
  TRACK 39 AUDIO
    TITLE "0:"
    INDEX 01 00:53:74
  TRACK 40 AUDIO
    TITLE "7:cjc092_4437"
    INDEX 01 00:54:32
  TRACK 41 AUDIO
    TITLE "8:cjc092_4438"
    INDEX 01 00:55:55
  TRACK 42 AUDIO
    TITLE "0:"
    INDEX 01 00:59:02
  TRACK 43 AUDIO
    TITLE "7:cjc092_4439"
    INDEX 01 00:59:34
  TRACK 44 AUDIO
    TITLE "8:cjc092_4440"
    INDEX 01 01:01:05
  TRACK 45 AUDIO
    TITLE "0:"
    INDEX 01 01:02:54
  TRACK 46 AUDIO
    TITLE "7:cjc092_4441"
    INDEX 01 01:03:10
  TRACK 47 AUDIO
    TITLE "8:cjc092_4442"
    INDEX 01 01:04:47
  TRACK 48 AUDIO
    TITLE "0:"
    INDEX 01 01:07:23
  TRACK 49 AUDIO
    TITLE "7:cjc092_4443"
    INDEX 01 01:07:53
  TRACK 50 AUDIO
    TITLE "8:cjc092_4444"
    INDEX 01 01:09:09
  TRACK 51 AUDIO
    TITLE "0:"
    INDEX 01 01:11:29
  TRACK 52 AUDIO
    TITLE "7:cjc092_4445"
    INDEX 01 01:11:60
  TRACK 53 AUDIO
    TITLE "8:cjc092_4446"
    INDEX 01 01:13:18
  TRACK 54 AUDIO
    TITLE "0:"
    INDEX 01 01:14:41
  TRACK 55 AUDIO
    TITLE "7:cjc092_4447"
    INDEX 01 01:14:72
  TRACK 56 AUDIO
    TITLE "8:cjc092_4448"
    INDEX 01 01:16:36
  TRACK 57 AUDIO
    TITLE "0:"
    INDEX 01 01:18:56
  TRACK 58 AUDIO
    TITLE "7:cjc092_4449"
    INDEX 01 01:19:13
  TRACK 59 AUDIO
    TITLE "8:cjc092_4450"
    INDEX 01 01:20:67
  TRACK 60 AUDIO
    TITLE "0:"
    INDEX 01 01:23:20
  TRACK 61 AUDIO
    TITLE "7:cjc092_4451"
    INDEX 01 01:23:58
  TRACK 62 AUDIO
    TITLE "8:cjc092_4452"
    INDEX 01 01:25:35
  TRACK 63 AUDIO
    TITLE "0:"
    INDEX 01 01:27:14
  TRACK 64 AUDIO
    TITLE "7:cjc092_4453"
    INDEX 01 01:27:46
  TRACK 65 AUDIO
    TITLE "8:cjc092_4454"
    INDEX 01 01:29:01
  TRACK 66 AUDIO
    TITLE "0:"
    INDEX 01 01:32:00
